<svg aria-hidden="true" style="position: absolute; width: 0; height: 0; overflow: hidden;" version="1.1" xmlns="http://www.w3.org/2000/svg" xmlns:xlink="http://www.w3.org/1999/xlink">
<defs>
<symbol id="logo" viewBox="0 0 92 32">
<path  style="fill: var(--color1, #fff)" d="M22.423 10.121c-0.337-1.045-0.785-1.953-1.343-2.78l0.025 0.039c-0.533-0.812-1.171-1.503-1.905-2.076l-0.019-0.014c-0.716-0.559-1.551-1.008-2.456-1.302l-0.057-0.016c-0.893-0.289-1.92-0.455-2.986-0.455-0.038 0-0.075 0-0.113 0.001l0.006-0q-2.756 0-5.013 1.423-2.259 1.425-3.59 4.198t-1.333 6.803 1.348 6.803 3.65 4.196q2.304 1.425 5.184 1.425 2.667 0 4.695-1.137c1.354-0.768 2.438-1.872 3.162-3.2l0.021-0.043q1.152-2.106 1.152-4.956l1.15 0.243h-9.333v-3.332h11.819v3.332q0 3.834-1.636 6.667c-1.068 1.866-2.593 3.362-4.427 4.365l-0.059 0.030q-2.848 1.545-6.545 1.545-4.122 0-7.243-1.939-3.104-1.941-4.847-5.515-1.728-3.578-1.728-8.484 0-3.684 0.986-6.622 0.998-2.955 2.816-5.030c1.17-1.339 2.605-2.415 4.227-3.151l0.078-0.032q2.481-1.105 5.47-1.105 2.453 0 4.576 0.742c1.458 0.497 2.72 1.203 3.825 2.094l-0.024-0.018c1.116 0.887 2.049 1.946 2.774 3.145l0.029 0.053q1.122 1.847 1.545 4.105zM43.358 31.881q-3.061 0-5.274-1.122-2.212-1.12-3.409-3.076t-1.197-4.469q0-1.941 0.817-3.441 0.832-1.515 2.289-2.801 1.472-1.306 3.379-2.607l4.484-3.334q1.316-0.862 2.106-1.847 0.804-0.986 0.804-2.575 0-1.182-1.045-2.289-1.030-1.105-2.714-1.105-1.184 0-2.091 0.606-0.896 0.589-1.408 1.515c-0.312 0.54-0.498 1.186-0.501 1.876v0.001q0 1.092 0.591 2.214 0.608 1.105 1.532 2.272 0.939 1.152 1.939 2.364l14.242 17.393h-4.303l-14.729-17.758c-0.786-0.924-1.49-1.962-2.076-3.073l-0.045-0.093c-0.498-0.973-0.789-2.123-0.789-3.341 0-0.013 0-0.027 0-0.040v0.002q0-2.091 0.926-3.665c0.628-1.059 1.519-1.902 2.586-2.454l0.036-0.017q1.696-0.896 3.968-0.896 2.336 0 4.015 0.911 1.681 0.896 2.592 2.379 0.909 1.472 0.909 3.198 0 2.229-1.105 3.861-1.107 1.638-3.017 3.046l-6.182 4.608q-2.091 1.542-2.833 2.999-0.742 1.451-0.742 2.091 0 1.453 0.759 2.711 0.757 1.259 2.133 2.031 1.38 0.772 3.23 0.772 1.756 0 3.424-0.742c1.177-0.55 2.177-1.284 3.009-2.177l0.005-0.006q1.363-1.425 2.153-3.424 0.8-1.999 0.802-4.501h3.456q0 3.093-0.713 5.047-0.715 1.954-1.606 3.059-0.896 1.107-1.44 1.651c-0.106 0.131-0.215 0.28-0.318 0.433l-0.015 0.023q-0.151 0.226-0.333 0.454c-1.012 1.118-2.285 1.981-3.725 2.495l-0.064 0.020c-1.342 0.506-2.892 0.805-4.511 0.817l-0.005 0zM85.69 10.118c-0.337-1.045-0.785-1.953-1.343-2.78l0.025 0.039c-0.533-0.812-1.171-1.503-1.905-2.076l-0.019-0.014c-0.717-0.559-1.554-1.009-2.46-1.302l-0.057-0.016c-0.893-0.289-1.92-0.455-2.986-0.455-0.036 0-0.072 0-0.109 0.001l0.005-0q-2.758 0-5.015 1.423-2.255 1.425-3.59 4.198-1.333 2.773-1.333 6.803t1.348 6.803 3.652 4.196 5.18 1.425q2.669 0 4.698-1.137c1.354-0.768 2.438-1.872 3.162-3.2l0.021-0.043q1.152-2.106 1.152-4.956l1.152 0.243h-9.335v-3.33h11.819v3.332q0 3.834-1.636 6.667c-1.067 1.866-2.592 3.362-4.425 4.365l-0.059 0.030q-2.848 1.545-6.545 1.545-4.122 0-7.243-1.939-3.108-1.941-4.849-5.515-1.728-3.578-1.728-8.484 0-3.684 0.986-6.622 1.001-2.955 2.816-5.030c1.171-1.34 2.608-2.416 4.232-3.151l0.078-0.032q2.481-1.105 5.468-1.105 2.453 0 4.576 0.742c1.458 0.497 2.72 1.203 3.825 2.094l-0.024-0.018c1.116 0.887 2.049 1.946 2.774 3.145l0.029 0.053q1.12 1.847 1.547 4.105z"></path>
</symbol>
</defs>
</svg>
